<svg width="338" height="194" viewBox="0 0 338 194" fill="none" xmlns="http://www.w3.org/2000/svg">
<path d="M181.597 170.5V187C181.597 190.3 184.297 193 187.597 193H215.097C218.997 193 221.197 188.8 219.697 184.6C218.597 181.6 214.697 177 208.597 173.9C207.797 173.5 206.997 173.1 206.097 172.8C204.697 172.2 203.197 171.7 201.597 171.3C191.497 168.9 181.697 170.5 181.697 170.5H181.597Z" fill="#3442D9"/>
<path d="M202.397 193H205.097L208.497 173.9C207.697 173.5 206.897 173.1 205.997 172.8L202.397 193.1V193Z" fill="#2828C6"/>
<path d="M277.397 129.6C275.497 131.6 271.097 135.8 264.497 140.1C263.697 140.6 262.897 141.1 262.097 141.6C256.797 144.8 250.297 147.9 242.697 150C241.797 150.3 240.897 150.5 239.897 150.7C234.897 151.9 229.497 152.6 223.797 152.6C218.097 152.6 220.897 152.6 219.397 152.5C218.497 152.5 217.497 152.4 216.497 152.3C209.397 151.6 201.897 149.8 193.897 146.6C188.797 144.5 186.297 138.7 188.397 133.6C190.497 128.5 196.297 126 201.397 128.1C206.797 130.3 211.897 131.6 216.697 132.2C217.697 132.3 218.597 132.4 219.597 132.5C225.397 132.9 230.597 132.5 235.397 131.3C236.297 131.1 237.297 130.9 238.197 130.6C243.497 129.1 247.997 126.9 251.797 124.6C252.597 124.1 253.497 123.6 254.197 123.1C258.697 120.1 261.697 117.2 262.997 115.9C263.197 115.7 263.297 115.6 263.297 115.5C267.197 111.6 273.597 111.7 277.397 115.6C281.197 119.5 281.197 125.8 277.397 129.6Z" fill="#CFCFDA"/>
<path d="M219.597 132.4L219.397 152.5C218.497 152.5 217.497 152.4 216.497 152.3L216.697 132.1C217.697 132.2 218.597 132.3 219.597 132.4Z" fill="#9B9BBA"/>
<path d="M242.697 150.1C241.797 150.4 240.897 150.6 239.897 150.8L235.397 131.2C236.297 131 237.297 130.8 238.197 130.5L242.697 150.1Z" fill="#9B9BBA"/>
<path d="M264.497 140.2C263.697 140.7 262.897 141.2 262.097 141.7L251.797 124.6C252.597 124.1 253.497 123.6 254.197 123.1L264.497 140.2Z" fill="#9B9BBA"/>
<path d="M168.497 117.1L195.997 121.8C204.197 123.2 208.597 126.1 212.197 137.6L216.897 155.5C219.797 170.9 205.497 185.8 189.997 183.2L148.997 176.2C137.097 174.2 130.497 161.2 135.797 150.3L146.897 128C150.897 120 159.597 115.5 168.497 117V117.1Z" fill="url(#paint0_linear_621_387)"/>
<path d="M151.097 158.3C151.497 158.3 151.897 158.1 152.097 157.8C152.597 157.2 152.497 156.4 151.897 155.9L143.497 149.1C142.897 148.6 142.097 148.7 141.597 149.3C141.097 149.9 141.197 150.7 141.797 151.2L150.197 158C150.397 158.2 150.697 158.3 150.997 158.3H151.097Z" fill="#898989"/>
<path d="M148.797 163C149.197 163 149.597 162.8 149.797 162.5C150.297 161.9 150.197 161.1 149.597 160.6L141.197 153.8C140.597 153.3 139.797 153.4 139.297 154C138.797 154.6 138.897 155.4 139.497 155.9L147.897 162.7C148.097 162.9 148.397 163 148.697 163H148.797Z" fill="#898989"/>
<path d="M157.897 138.2C157.497 143.4 153.097 147.3 147.997 147.3C142.897 147.3 147.397 147.3 147.097 147.3C140.597 146.7 134.597 145.8 129.097 144.5C128.197 144.3 127.197 144.1 126.297 143.8C116.097 141.2 107.397 137.6 100.097 133.4C99.2969 132.9 98.3969 132.4 97.5969 131.9C87.7969 126 80.5969 119.2 75.2969 113C74.6969 112.2 74.0969 111.5 73.4969 110.8C67.9969 103.9 65.0969 98 63.9969 95.5C61.6969 90.5 63.7969 84.5 68.7969 82.2C73.7969 79.9 79.7969 82 82.0968 87V87.3C82.7969 88.5 84.8969 92.9 89.2969 98.4C89.8969 99.1 90.4968 99.8 91.0968 100.6C94.8968 104.9 100.097 109.7 106.897 114.1C107.697 114.6 108.497 115.1 109.397 115.6C114.997 118.9 121.797 121.9 129.697 124C130.597 124.3 131.497 124.5 132.497 124.7C137.497 125.9 142.997 126.8 148.897 127.4C154.397 127.9 158.497 132.7 157.997 138.2H157.897Z" fill="#CFCFDA"/>
<path d="M155.497 177.4V187.1C155.497 190.4 152.797 193.1 149.497 193.1H121.997C118.097 193.1 115.897 188.9 117.397 184.7C118.497 181.7 122.397 177.1 128.497 174C129.297 173.6 130.097 173.2 130.997 172.9C132.397 172.3 133.897 171.8 135.497 171.4C139.997 170.3 144.497 170 147.997 170.1C151.497 170.2 155.397 173.4 155.397 177.5L155.497 177.4Z" fill="#6990FF"/>
<path d="M134.597 193H131.897L128.497 173.9C129.297 173.5 130.097 173.1 130.997 172.8L134.597 193.1V193Z" fill="#3D6BF2"/>
<path d="M144.697 117C144.997 123 150.097 127.5 156.097 127.2L163.297 126.8H165.897C165.897 126.7 181.597 125.8 181.597 125.8H184.197C184.197 125.7 199.897 124.8 199.897 124.8H201.397C201.797 124.7 202.197 124.7 202.497 124.6C206.297 123.8 209.097 120.4 208.897 116.3L208.397 107.8L201.497 108.2H198.897C198.897 108.3 183.197 109.2 183.197 109.2H180.597C180.597 109.3 164.897 110.2 164.897 110.2L162.297 110.4L144.297 111.4L144.597 117.1L144.697 117Z" fill="#6990FF"/>
<path d="M201.597 124.7C201.997 124.7 202.397 124.7 202.697 124.6L201.797 108.2H199.197C199.197 108.3 200.097 124.9 200.097 124.9H201.597V124.7Z" fill="#3D6BF2"/>
<path d="M183.604 109.091L180.908 109.237L181.805 125.813L184.501 125.667L183.604 109.091Z" fill="#3D6BF2"/>
<path d="M163.297 126.8L165.997 126.6L165.097 110.1L162.397 110.3L163.297 126.8Z" fill="#3D6BF2"/>
<path d="M233.697 68.7C236.497 68 239.897 71.5 241.097 76.5C242.397 81.5 241.097 86.2 238.197 86.9L228.497 89.3L223.897 71.1L233.597 68.7H233.697Z" fill="#698FFF"/>
<path d="M206.897 60.4C207.297 60.2 207.797 59.9 208.397 59.5C212.797 56.7 222.397 50 224.197 42.5C225.297 37.8 224.097 31.9 214.897 26.2C214.297 25.8 213.597 25.5 212.897 25.2C207.397 23 200.397 24.5 199.797 33.8C199.297 42.9 199.597 52.9 200.197 57.4C200.697 61.3 203.897 62.3 206.897 60.5V60.4Z" fill="#E8E8E8"/>
<path d="M208.397 59.4C212.797 56.6 222.397 49.9 224.197 42.4C225.297 37.7 224.097 31.8 214.897 26.1C214.297 25.7 213.597 25.4 212.897 25.1L208.497 59.5L208.397 59.4Z" fill="#FF78B9"/>
<path d="M163.197 32.4C164.397 32.4 165.297 31.5 165.397 30.3C165.397 29.4 166.697 8.09998 151.997 2.29998C137.697 -3.40002 115.597 11.5 114.697 12.1C113.697 12.8 113.397 14.2 114.097 15.2C114.797 16.2 116.197 16.5 117.197 15.8C117.397 15.7 138.197 1.59999 150.397 6.39999C162.197 11.1 160.997 29.8 160.997 30C160.997 31.2 161.797 32.3 163.097 32.4C163.097 32.4 163.097 32.4 163.197 32.4Z" fill="black"/>
<path d="M155.131 41.9571L175.798 36.8041C177.673 36.3365 178.815 34.4369 178.347 32.5614L177.186 27.904C176.718 26.0284 174.819 24.887 172.943 25.3546L152.276 30.5076C150.4 30.9752 149.259 32.8748 149.727 34.7503L150.888 39.4077C151.355 41.2833 153.255 42.4247 155.131 41.9571Z" fill="#6990FF"/>
<path d="M114.297 29C122.305 29 128.797 22.5081 128.797 14.5C128.797 6.49187 122.305 0 114.297 0C106.289 0 99.7969 6.49187 99.7969 14.5C99.7969 22.5081 106.289 29 114.297 29Z" fill="#6990FF"/>
<path d="M233.397 77.4C230.197 64 219.797 60.5 214.297 58.5C203.297 54.5 201.397 51.9 198.697 48.3C191.797 38.9 181.597 31.5 164.997 35.3C148.797 39 142.497 52 140.797 64.4C140.797 65 140.697 65.5 140.597 66C138.597 61.5 135.797 55.9 132.797 50.7C128.097 42.6 121.197 44.4 117.297 48.9C116.797 49.5 116.297 50.1 115.997 50.7C110.397 60 111.897 65.7 114.997 69.5C119.897 75.4 131.397 77.1 136.597 77.6C131.997 83.6 126.697 92 129.497 103.2C132.797 116.3 145.897 124.3 158.997 121.3L215.797 107.1C228.697 103.6 236.497 90.5 233.397 77.5V77.4Z" fill="url(#paint1_linear_621_387)"/>
<path d="M114.997 69.4C119.897 75.3 131.497 77 136.697 77.5L117.297 48.8C116.797 49.4 116.297 50 115.997 50.6C110.397 59.9 111.897 65.6 114.997 69.4Z" fill="#FFAED7"/>
<path d="M134.697 93.4C137.497 92.7 140.897 96.2 142.097 101.2C143.297 106.2 142.097 110.9 139.197 111.6L129.497 114L124.897 95.8L134.597 93.4H134.697Z" fill="#698FFF"/>
<path d="M129.352 114.271C132.192 113.563 133.476 108.905 132.22 103.868C130.965 98.8305 127.644 95.3211 124.804 96.0292C121.964 96.7373 120.679 101.395 121.935 106.432C123.191 111.469 126.512 114.979 129.352 114.271Z" fill="#8CA9FF"/>
<path d="M196.839 59.6512C198.221 57.0082 198.23 54.2849 196.859 53.5685C195.489 52.852 193.258 54.4138 191.876 57.0567C190.494 59.6997 190.485 62.423 191.856 63.1395C193.226 63.8559 195.457 62.2941 196.839 59.6512Z" fill="black"/>
<path d="M170.389 67.9611C171.26 66.6837 169.969 64.2856 167.506 62.605C165.042 60.9244 162.338 60.5976 161.467 61.8751C160.595 63.1525 161.886 65.5506 164.35 67.2312C166.814 68.9118 169.517 69.2386 170.389 67.9611Z" fill="black"/>
<path d="M165.997 80.7C166.297 80.7 166.597 80.5 166.797 80.2C167.297 79.6 167.197 78.8 166.597 78.3L160.497 73.3C159.897 72.8 159.097 72.9 158.597 73.5C158.097 74.1 158.197 74.9 158.797 75.4L164.897 80.4C165.197 80.7 165.597 80.8 165.997 80.7Z" fill="#FFAED7"/>
<path d="M160.597 82C160.897 82 161.197 81.8 161.397 81.5C161.897 80.9 161.797 80.1 161.197 79.6L155.097 74.6C154.497 74.1 153.697 74.2 153.197 74.8C152.697 75.4 152.797 76.2 153.397 76.7L159.497 81.7C159.797 82 160.197 82.1 160.597 82Z" fill="#FFAED7"/>
<path d="M155.097 83.3C155.397 83.3 155.697 83.1 155.897 82.8C156.397 82.2 156.297 81.4 155.697 80.9L149.597 75.9C148.997 75.4 148.197 75.5 147.697 76.1C147.197 76.7 147.297 77.5 147.897 78L153.997 83C154.297 83.3 154.697 83.4 155.097 83.3Z" fill="#FFAED7"/>
<path d="M201.297 71.9C201.697 71.9 202.097 71.5 202.297 71.1L205.397 63.8C205.697 63.1 205.397 62.3 204.697 62.1C203.997 61.8 203.197 62.1 202.997 62.8L199.897 70.1C199.597 70.8 199.897 71.6 200.597 71.8C200.897 71.9 201.097 71.9 201.397 71.8L201.297 71.9Z" fill="#FFAED7"/>
<path d="M206.797 70.6C207.197 70.6 207.597 70.2 207.797 69.8L210.897 62.5C211.197 61.8 210.897 61 210.197 60.8C209.497 60.5 208.697 60.8 208.497 61.5L205.397 68.8C205.097 69.5 205.397 70.3 206.097 70.5C206.397 70.6 206.597 70.6 206.897 70.5L206.797 70.6Z" fill="#FFAED7"/>
<path d="M212.197 69.2C212.597 69.2 212.997 68.8 213.197 68.4L216.297 61.1C216.597 60.4 216.297 59.6 215.597 59.4C214.897 59.1 214.097 59.4 213.897 60.1L210.797 67.4C210.497 68.1 210.797 68.9 211.497 69.1C211.797 69.2 211.997 69.2 212.297 69.1L212.197 69.2Z" fill="#FFAED7"/>
<path d="M184.597 69C184.297 67.5 189.697 66.3 189.997 67.8C190.297 69.3 188.897 70.5 187.797 70.7C186.697 71 184.897 70.5 184.597 69Z" fill="black"/>
<path d="M195.897 74.9C196.897 80.4 194.797 85.5 191.097 86.2C187.497 87 183.597 83.3 182.097 77.9L195.797 74.8L195.897 74.9Z" fill="#FF78B9"/>
<path d="M68.5968 97.7C76.6049 97.7 83.0968 91.2081 83.0968 83.2C83.0968 75.1919 76.6049 68.7 68.5968 68.7C60.5887 68.7 54.0968 75.1919 54.0968 83.2C54.0968 91.2081 60.5887 97.7 68.5968 97.7Z" fill="#6990FF"/>
<path d="M83.7654 7.16294L4.3527 27.9965C1.94877 28.6271 0.511251 31.0871 1.14191 33.4911L16.2151 90.9468C16.8458 93.3507 19.3058 94.7882 21.7097 94.1576L101.122 73.324C103.526 72.6934 104.964 70.2334 104.333 67.8294L89.26 10.3737C88.6293 7.9698 86.1693 6.53228 83.7654 7.16294Z" fill="#D3D7DB"/>
<path d="M58.4968 69C58.0968 69 57.7968 68.9 57.5968 68.6L39.3968 47.2L27.5968 67.6C27.2968 68.2 26.4968 68.4 25.9968 68C25.3968 67.7 25.1968 66.9 25.5968 66.4L38.1968 44.5C38.3968 44.2 38.6968 43.9 39.0968 43.9C39.4968 43.9 39.8968 44 40.0968 44.3L57.5968 64.8L60.7968 30.4C60.7968 29.9 61.0968 29.6 61.5968 29.4C61.9968 29.2 62.4968 29.4 62.7968 29.6L81.2968 46.6C81.7968 47 81.7968 47.8 81.2968 48.3C80.8968 48.8 80.0968 48.8 79.5968 48.3L62.8968 32.9L59.6968 67.7C59.6968 68.2 59.2968 68.6 58.8968 68.7C58.7968 68.7 58.6968 68.7 58.5968 68.7L58.4968 69Z" fill="#5865F0"/>
<path d="M26.5968 74C30.4076 74 33.4968 70.9108 33.4968 67.1C33.4968 63.2892 30.4076 60.2 26.5968 60.2C22.7861 60.2 19.6968 63.2892 19.6968 67.1C19.6968 70.9108 22.7861 74 26.5968 74Z" fill="#8088FD"/>
<path d="M62.3968 37.5C66.2076 37.5 69.2968 34.4108 69.2968 30.6C69.2968 26.7892 66.2076 23.7 62.3968 23.7C58.5861 23.7 55.4968 26.7892 55.4968 30.6C55.4968 34.4108 58.5861 37.5 62.3968 37.5Z" fill="#8088FD"/>
<path d="M58.5968 74.2C62.4076 74.2 65.4969 71.1108 65.4969 67.3C65.4969 63.4892 62.4076 60.4 58.5968 60.4C54.7861 60.4 51.6968 63.4892 51.6968 67.3C51.6968 71.1108 54.7861 74.2 58.5968 74.2Z" fill="#8088FD"/>
<path d="M80.4968 55.1C84.3076 55.1 87.3968 52.0108 87.3968 48.2C87.3968 44.3893 84.3076 41.3 80.4968 41.3C76.6861 41.3 73.5968 44.3893 73.5968 48.2C73.5968 52.0108 76.6861 55.1 80.4968 55.1Z" fill="#8088FD"/>
<path d="M39.1968 52.1C43.0076 52.1 46.0968 49.0108 46.0968 45.2C46.0968 41.3893 43.0076 38.3 39.1968 38.3C35.386 38.3 32.2968 41.3893 32.2968 45.2C32.2968 49.0108 35.386 52.1 39.1968 52.1Z" fill="#8088FD"/>
<path d="M71.2968 88.7C75.6047 88.7 79.0968 85.2078 79.0968 80.9C79.0968 76.5922 75.6047 73.1 71.2968 73.1C66.989 73.1 63.4968 76.5922 63.4968 80.9C63.4968 85.2078 66.989 88.7 71.2968 88.7Z" fill="#6990FF"/>
<path d="M274.597 132.3C282.605 132.3 289.097 125.808 289.097 117.8C289.097 109.792 282.605 103.3 274.597 103.3C266.589 103.3 260.097 109.792 260.097 117.8C260.097 125.808 266.589 132.3 274.597 132.3Z" fill="#6990FF"/>
<path d="M311.897 130.4L257.097 108.2C254.797 107.3 253.697 104.6 254.597 102.3L274.197 54.2C275.097 51.9 277.797 50.8 280.097 51.7L334.897 73.9C337.197 74.8 338.297 77.5 337.397 79.8L317.797 127.9C316.897 130.2 314.197 131.3 311.897 130.4Z" fill="#D3D7DB"/>
<path d="M283.195 72.5909L274.059 95.4316C273.444 96.97 274.192 98.7159 275.731 99.3312L304.885 110.992C306.423 111.607 308.169 110.859 308.785 109.321L317.92 86.48C318.536 84.9417 317.787 83.1958 316.249 82.5805L287.095 70.9195C285.556 70.3042 283.81 71.0525 283.195 72.5909Z" fill="#8088FD"/>
<path d="M285.997 93.8L290.697 82C290.897 81.4 291.697 81.2 292.197 81.7L304.097 93.3C304.697 93.9 304.297 94.9 303.497 94.9L286.797 95.1C286.197 95.1 285.697 94.5 285.897 93.9L285.997 93.8Z" fill="#5865F0"/>
<path d="M272.297 122.2C276.605 122.2 280.097 118.708 280.097 114.4C280.097 110.092 276.605 106.6 272.297 106.6C267.989 106.6 264.497 110.092 264.497 114.4C264.497 118.708 267.989 122.2 272.297 122.2Z" fill="#6990FF"/>
<path d="M132.297 124.7L128.997 144.5C128.097 144.3 127.097 144.1 126.197 143.8L129.597 124C130.497 124.3 131.397 124.5 132.397 124.7H132.297Z" fill="#9B9BBA"/>
<path d="M109.297 115.5L99.9968 133.4C99.1968 132.9 98.2968 132.4 97.4968 131.9L106.797 114C107.597 114.5 108.397 115 109.297 115.5Z" fill="#9B9BBA"/>
<path d="M90.9969 100.6L75.1968 113C74.5968 112.2 73.9969 111.5 73.3969 110.8L89.1968 98.4C89.7968 99.1 90.3969 99.8 90.9969 100.6Z" fill="#9B9BBA"/>
<defs>
<linearGradient id="paint0_linear_621_387" x1="168.883" y1="122.002" x2="180.611" y2="186.214" gradientUnits="userSpaceOnUse">
<stop stop-color="#E8E8E8"/>
<stop offset="0.3" stop-color="#E5E6E7"/>
<stop offset="0.6" stop-color="#DDDFE6"/>
<stop offset="0.7" stop-color="#CED4E3"/>
<stop offset="0.9" stop-color="#BAC5DF"/>
<stop offset="1" stop-color="#ABB9DD"/>
</linearGradient>
<linearGradient id="paint1_linear_621_387" x1="159.918" y1="39.2668" x2="193.755" y2="120.328" gradientUnits="userSpaceOnUse">
<stop offset="0.2" stop-color="#E8E8E8"/>
<stop offset="0.5" stop-color="#E5E6E7"/>
<stop offset="0.7" stop-color="#DDDFE6"/>
<stop offset="0.8" stop-color="#CED4E3"/>
<stop offset="0.9" stop-color="#BAC5DF"/>
<stop offset="1" stop-color="#ABB9DD"/>
</linearGradient>
</defs>
</svg>
