<svg xmlns="http://www.w3.org/2000/svg" xmlns:xlink="http://www.w3.org/1999/xlink" viewBox="0 0 480 268">
  <defs>
    <linearGradient id="linear-gradient" x1="96.41" y1="161.74" x2="177.66" y2="72.43" gradientUnits="userSpaceOnUse">
      <stop offset="0" stop-color="#060623"/>
      <stop offset="1" stop-color="#430259"/>
    </linearGradient>
    <linearGradient id="linear-gradient-2" x1="101.8" y1="40.67" x2="156.01" y2="40.67" gradientUnits="userSpaceOnUse">
      <stop offset="0" stop-color="#b473f5"/>
      <stop offset="1" stop-color="#e292aa"/>
    </linearGradient>
    <linearGradient id="linear-gradient-3" x1="153.23" y1="92.6" x2="287.59" y2="92.6" gradientUnits="userSpaceOnUse">
      <stop offset="0" stop-color="#2954d6"/>
      <stop offset="1" stop-color="#9d5be3"/>
    </linearGradient>
    <linearGradient id="linear-gradient-4" x1="158.1" y1="87.74" x2="292.46" y2="87.74" gradientUnits="userSpaceOnUse">
      <stop offset="0" stop-color="#3e70dd"/>
      <stop offset="1" stop-color="#b377f3"/>
    </linearGradient>
    <linearGradient id="linear-gradient-5" x1="412.58" y1="101.04" x2="425.81" y2="151.89" gradientUnits="userSpaceOnUse">
      <stop offset="0" stop-color="#e8e8e8"/>
      <stop offset="0.23" stop-color="#e0e2e7"/>
      <stop offset="0.59" stop-color="#cbd2e3"/>
      <stop offset="1" stop-color="#abb9dd"/>
    </linearGradient>
    <linearGradient id="linear-gradient-6" x1="416.2" y1="70.81" x2="411.36" y2="130.41" gradientTransform="translate(-9.7 61.1) rotate(-11.3)" gradientUnits="userSpaceOnUse">
      <stop offset="0" stop-color="#e8e8e8"/>
      <stop offset="0.5" stop-color="#e6e7e8"/>
      <stop offset="0.68" stop-color="#dfe1e6"/>
      <stop offset="0.8" stop-color="#d4d8e4"/>
      <stop offset="0.91" stop-color="#c3cbe1"/>
      <stop offset="0.99" stop-color="#adbbdd"/>
      <stop offset="1" stop-color="#abb9dd"/>
    </linearGradient>
  </defs>
  <title>SDK-Website-Hero-Illustration</title>
  <g id="phone">
    <polygon points="219.6 233.3 205.8 233.3 205.8 246.9 219.6 233.3" style="fill: #2e2a57"/>
    <path d="M23.9,39.8c-1.6-6.9,2.9-12.6,10-12.6H145.1c7.2,0,14.4,5.7,16,12.6l47,197.4c1.7,7-2.8,12.7-10,12.7H86.9c-7.1,0-14.3-5.7-16-12.7Z" style="fill: #2e2a57"/>
    <rect x="84.2" y="224.7" width="4.5" height="21.66" rx="2.3" transform="translate(194.3 9) rotate(45.6)" style="fill: #211e42"/>
    <path d="M146.3,241.5h0a2.2,2.2,0,0,0,1.5,3.8h17.8a2.1,2.1,0,0,0,1.5-.7h0a2.1,2.1,0,0,0-1.5-3.7H147.8A2,2,0,0,0,146.3,241.5Z" style="fill: #211e42"/>
    <polygon points="40.3 16.4 40.3 30 26.4 30 40.3 16.4" style="fill: #2e2a57"/>
    <path d="M37.8,26.2c-1.6-6.9,2.8-12.6,10-12.6H159c7.2,0,14.4,5.7,16,12.6l47,197.4c1.7,7-2.8,12.7-10,12.7H100.8c-7.1,0-14.3-5.7-16-12.7Z" style="fill: #423e75"/>
    <path d="M45.2,33.4a3.8,3.8,0,0,1,3.9-4.9H164.8a6.7,6.7,0,0,1,6.2,4.9l43.5,183.1a3.7,3.7,0,0,1-3.8,4.8H95a6.7,6.7,0,0,1-6.2-4.8Z" style="fill: url(#linear-gradient)"/>
    <rect x="40.3" y="69.8" width="5.4" height="31.81" rx="2.7" transform="translate(104.8 159) rotate(166.6)" style="fill: #b473f5"/>
  </g>
  <g id="phone-elements">
    <path d="M136.6,184.5a7.3,7.3,0,0,0-6.7-5.3h-50l.3,1h49.7a6.1,6.1,0,0,1,5.7,4.5l8.7,36.6h1.1Z" style="fill: #d186c4"/>
    <path d="M121.1,74.5a6,6,0,0,1,5.4,4.3l14.6,61.5h.5a3.8,3.8,0,0,0,3.9-4.8L130.8,73.8a6.7,6.7,0,0,0-6.2-4.9H53.7L55,74.5Z" style="fill: #0c1aab"/>
    <path d="M146,135.4,131.3,73.6a7.3,7.3,0,0,0-6.7-5.2h-71l.2,1h70.8a6.1,6.1,0,0,1,5.7,4.5L145,135.6a3.9,3.9,0,0,1-.6,3,3.4,3.4,0,0,1-2.8,1.2h-71l.2,1h70.8a4.2,4.2,0,0,0,3.6-1.6A4.6,4.6,0,0,0,146,135.4Z" style="fill: #3442d7"/>
    <path d="M74.4,68.8c.4,1.9-1,3.5-3.2,3.5H62.5a5.1,5.1,0,0,1-4.8-3.5,3,3,0,0,1,3.2-3.6h8.7A5.1,5.1,0,0,1,74.4,68.8Z" style="fill: #5865f0"/>
    <path d="M101.7,82.8c.5,1.9-1,3.5-3.2,3.5H75.2a5,5,0,0,1-4.8-3.5c-.5-2,.9-3.6,3.1-3.6H96.9A5,5,0,0,1,101.7,82.8Z" style="fill: #c0c0ed"/>
    <path d="M118.7,82.8c.5,1.9-1,3.5-3.2,3.5h-5a5,5,0,0,1-4.8-3.5c-.5-2,.9-3.6,3.1-3.6h5.1A5,5,0,0,1,118.7,82.8Z" style="fill: #c0c0ed"/>
    <path d="M146.5,82.8c.4,1.9-1,3.5-3.2,3.5H128.2a5.1,5.1,0,0,1-4.8-3.5,3,3,0,0,1,3.2-3.6h15A5.2,5.2,0,0,1,146.5,82.8Z" style="fill: #2aca78"/>
    <path d="M111.9,96.8c.5,1.9-1,3.5-3.2,3.5H91.3a5.1,5.1,0,0,1-4.8-3.5c-.5-2,1-3.6,3.2-3.6h17.4A5,5,0,0,1,111.9,96.8Z" style="fill: #8ad7ff"/>
    <path d="M145,96.8c.4,1.9-1,3.5-3.2,3.5H123.2a5.1,5.1,0,0,1-4.8-3.5,3,3,0,0,1,3.2-3.6h18.6A5.1,5.1,0,0,1,145,96.8Z" style="fill: #5865f0"/>
    <path d="M84.1,110.7c.5,2-1,3.6-3.2,3.6H72.3a5,5,0,0,1-4.8-3.6c-.5-1.9.9-3.5,3.1-3.5h8.7A5.1,5.1,0,0,1,84.1,110.7Z" style="fill: #c0c0ed"/>
    <path d="M98.8,110.7c.5,2-1,3.6-3.2,3.6h-.3a5,5,0,0,1-4.8-3.6c-.5-1.9,1-3.5,3.2-3.5H94A5,5,0,0,1,98.8,110.7Z" style="fill: #2aca78"/>
    <path d="M109.2,124.7c.5,2-1,3.6-3.2,3.6H75.5a5,5,0,0,1-4.8-3.6c-.5-1.9,1-3.5,3.2-3.5h30.5A5.1,5.1,0,0,1,109.2,124.7Z" style="fill: #5865f0"/>
    <path d="M155.9,40.7c.5,1.9-1,3.5-3.2,3.5h-46a5,5,0,0,1-4.8-3.5c-.5-2,1-3.6,3.2-3.6h46A5,5,0,0,1,155.9,40.7Z" style="fill: url(#linear-gradient-2)"/>
    <path d="M122.3,124.7c.5,2-1,3.6-3.2,3.6h-.3a5,5,0,0,1-4.8-3.6c-.5-1.9,1-3.5,3.2-3.5h.3A5,5,0,0,1,122.3,124.7Z" style="fill: #e4e4eb"/>
    <path d="M144.5,124.7a3,3,0,0,1-3.2,3.6h-8.9a5,5,0,0,1-4.8-3.6c-.5-1.9,1-3.5,3.2-3.5h8.9A5.1,5.1,0,0,1,144.5,124.7Z" style="fill: #e4e4eb"/>
    <path d="M113.8,68.8c.5,1.9-1,3.5-3.2,3.5H86.2a5.1,5.1,0,0,1-4.8-3.5,3,3,0,0,1,3.2-3.6H109A5,5,0,0,1,113.8,68.8Z" style="fill: #b473f5"/>
    <polygon points="165.1 166.2 160.9 164.6 160.9 170.4 165.1 166.2" style="fill: #29cc7a"/>
    <polygon points="101.7 117.1 101.7 121.3 97.5 121.3 101.7 117.1" style="fill: #29cc7a"/>
    <path d="M96.8,124.7a3.8,3.8,0,0,1,3.9-4.8h45.1a6.8,6.8,0,0,1,6.2,4.8l9.9,41.9a3.7,3.7,0,0,1-3.8,4.8H113a6.7,6.7,0,0,1-6.2-4.8Z" style="fill: #29cc7a"/>
    <path d="M100.9,120.7a3.8,3.8,0,0,1,3.9-4.9h45.1a6.6,6.6,0,0,1,6.1,4.9l10,41.8a3.8,3.8,0,0,1-3.8,4.9H117a6.6,6.6,0,0,1-6.1-4.9Z" style="fill: #57ef84"/>
    <path d="M125.6,196l-17.3-10.2a1.4,1.4,0,0,0-1.6.1h0l-10.6,10a1.3,1.3,0,0,0-.2,1.7l10.5,16.5a1.4,1.4,0,0,0,1.1.7h17.2a1.3,1.3,0,0,0,1.3-1.3l.3-16.3A1.5,1.5,0,0,0,125.6,196Zm-1.9,17.5H108.1l3.6-11.5Zm-15.1-26.1,15.3,9.1-12,3.3Zm4.1,13.6,12.3-3.3-.2,14.9Zm-5.5-13.7,3.2,12.4-13-3.3Zm-9.6,10.6,12.9,3.3-3.6,11.4Z" style="fill: #c27cff"/>
    <path d="M108.2,190.8l-1.7,8.5v.2l1.4,10.9a.7.7,0,0,0,1,.6l9.4-3.2a.8.8,0,0,0,.5-.5l2.4-8.7a.9.9,0,0,0-.4-.9l-11.4-7.4A.8.8,0,0,0,108.2,190.8Z" style="fill: #5050f4"/>
    <path d="M187.9,182.9a6.6,6.6,0,0,1-6.1-4.8l-5.7-23.9a3.8,3.8,0,0,1,3.8-4.9h51.3a6.6,6.6,0,0,1,6.1,4.9l5.7,23.9a3.7,3.7,0,0,1-3.8,4.8Z" style="fill: #5865f2"/>
    <path d="M225.1,163.2l-2.1-8.7H190.6l2.1,8.7a3.9,3.9,0,0,1,3.6,2.9A2.2,2.2,0,0,1,194,169l2.1,8.7h32.4l-2-8.7a4,4,0,0,1-3.7-2.9A2.3,2.3,0,0,1,225.1,163.2Zm-12.7,8.7.7,2.9h-2.9l-.7-2.9h-3l-.7-2.9h5.9c.4,0,.7-.2.6-.5s-7.3,0-8.5-4.7a2.8,2.8,0,0,1,2.9-3.5l-.7-2.9h3l.7,2.9h2.9l.7,2.9h-5.9c-.4,0-.7.3-.6.6s7.4,0,8.5,4.7A2.7,2.7,0,0,1,212.4,171.9Z" style="fill: #fff"/>
    <g>
      <path d="M128.2,148.9l5.2-14.7h5.3l-5.2,14.7Z" style="fill: #fff"/>
      <path d="M147.5,136.9l-1.1-4.4c-.8-3.5-3.2-5.6-6.6-5.6H137l.7,3.2h1.8c1.5,0,2.6,1.1,3,2.8l1.1,4.3a5.1,5.1,0,0,0,3.8,4.2l.6.2h-.5c-2.3.9-2.2,2.7-1.9,4.2l1,4.3c.5,1.8-.2,2.8-1.7,2.8h-1.7l.7,3.2h2.8c3.4,0,4.9-2,4-5.6l-1-4.4c-.5-2.2-.1-2.9,2.1-2.9l-.8-3.4C148.8,139.8,148,139.2,147.5,136.9Z" style="fill: #fff"/>
      <path d="M120.3,132.9c-.5-1.7.2-2.8,1.7-2.8h1.7l-.7-3.2h-2.8c-3.4,0-4.9,2.1-4,5.6l1,4.4c.5,2.3.1,2.9-2.1,3l.8,3.4c2.2,0,3,.7,3.5,2.9l1.1,4.4c.8,3.6,3.2,5.6,6.6,5.6h2.8l-.7-3.2h-1.8c-1.5,0-2.6-1-3-2.8l-1.1-4.3a5.2,5.2,0,0,0-3.8-4.2h-.6l.5-.2c2.3-.8,2.2-2.7,1.9-4.2Z" style="fill: #fff"/>
    </g>
  </g>
  <g id="controller-element">
    <polygon points="291 126.2 286.1 131 286.4 125.5 291 126.2" style="fill: #9d5be3"/>
    <polygon points="159.3 49.6 154.5 54.4 161.8 54.4 159.3 49.6" style="fill: #2954d6"/>
    <path d="M153.4,59.2a5.1,5.1,0,0,1,5.1-6.5H264.1a7.8,7.8,0,0,1,7.2,5.8L287.4,126a5,5,0,0,1-5.1,6.5H176.7a7.8,7.8,0,0,1-7.2-5.8Z" style="fill: url(#linear-gradient-3)"/>
    <path d="M158.3,54.3c-.9-3.5,1.4-6.4,5.1-6.4H269a7.8,7.8,0,0,1,7.2,5.7l16.1,67.6a5,5,0,0,1-5.1,6.4H181.6a7.8,7.8,0,0,1-7.2-5.7Z" style="fill: url(#linear-gradient-4)"/>
    <path d="M266.4,71.9l12,29.4a13.1,13.1,0,0,1-12.1,18h0a12.8,12.8,0,0,1-8.6-3.3l-10.9-9.7a15.8,15.8,0,0,0-10.5-4H215.1a8.3,8.3,0,0,0-7.5,5l-1.3,2.8a15.2,15.2,0,0,1-14,9.2h0a15.3,15.3,0,0,1-15.2-15.4l.2-31.9a14,14,0,0,1,14-13.9h54.6A22.2,22.2,0,0,1,266.4,71.9Z" style="fill: #fff"/>
    <path d="M259.4,72.6a1.6,1.6,0,0,1-1.6,1.9H246a2.4,2.4,0,0,1-2.3-1.9l-.2-1.1a1.5,1.5,0,0,1,1.6-1.9h11.8a2.4,2.4,0,0,1,2.3,1.9Z" style="fill: #babae6"/>
    <path d="M255.1,77.4a1.6,1.6,0,0,1-1.6,1.9H252a2.5,2.5,0,0,1-2.3-1.9l-1.9-10.7a1.5,1.5,0,0,1,1.6-1.9h1.4a2.4,2.4,0,0,1,2.3,1.9Z" style="fill: #babae6"/>
    <ellipse cx="195.9" cy="67.2" rx="2.3" ry="2.8" transform="translate(50.3 214.5) rotate(-64.3)" style="fill: #ff78b7"/>
    <ellipse cx="191.5" cy="72" rx="2.3" ry="2.8" transform="translate(43.4 213.2) rotate(-64.3)" style="fill: #8088ff"/>
    <ellipse cx="202.2" cy="72" rx="2.3" ry="2.8" transform="translate(49.5 222.8) rotate(-64.3)" style="fill: #57f085"/>
    <ellipse cx="197.7" cy="76.9" rx="2.3" ry="2.8" transform="translate(42.5 221.6) rotate(-64.3)" style="fill: #ffe55c"/>
    <path d="M227.4,64.9a20.2,20.2,0,0,0-3.3-.9,3.1,3.1,0,0,1-.2.8,9.1,9.1,0,0,0-3.3,0L220,64a11.5,11.5,0,0,0-2.8.9,11.1,11.1,0,0,0-.2,8.4h0a14.3,14.3,0,0,0,4.1,1.8,5,5,0,0,0,.5-1.3l-1.4-.6.3-.2a8.7,8.7,0,0,0,7.4,0l.4.2a3,3,0,0,1-1.1.6,6.9,6.9,0,0,0,1.1,1.3,7.9,7.9,0,0,0,3.2-1.8h0A15.5,15.5,0,0,0,227.4,64.9Zm-6,6.7a1.8,1.8,0,0,1-1.6-1.5c-.2-.8.2-1.5.9-1.5a1.9,1.9,0,0,1,1.7,1.5C222.6,70.9,222.2,71.6,221.4,71.6Zm4.9,0a2,2,0,0,1-1.7-1.5,1.1,1.1,0,0,1,1-1.5,2,2,0,0,1,1.7,1.5A1.1,1.1,0,0,1,226.3,71.6Z" style="fill: #4f51f5"/>
    <ellipse cx="239.2" cy="87.8" rx="6.9" ry="8.3" transform="translate(42.1 249.3) rotate(-59.5)" style="fill: #babae6"/>
    <ellipse cx="214.7" cy="87.8" rx="6.9" ry="8.3" transform="translate(30 228.2) rotate(-59.5)" style="fill: #babae6"/>
    <ellipse cx="215.4" cy="87.1" rx="5.5" ry="6.6" transform="translate(31 228.4) rotate(-59.5)" style="fill: #423d80"/>
    <ellipse cx="239.9" cy="87.1" rx="5.5" ry="6.6" transform="matrix(0.51, -0.86, 0.86, 0.51, 43, 249.51)" style="fill: #423d80"/>
  </g>
  <g id="wumpus">
    <circle cx="320.9" cy="198.3" r="53.9" style="fill: #ffe55c"/>
    <path d="M365.1,229.1c-5.2-8.3-10.1-12-17.4-12.2l-2.3-4.3-44,6.5q-.9,3-1.5,6a100.4,100.4,0,0,0-17.2,11.2,53.9,53.9,0,0,0,82.4-7.2Z" style="fill: #698eff"/>
    <path d="M345.2,217l-51.3,11.9C323.3,237,355.2,234.6,345.2,217Z" style="fill: #416efa"/>
    <path d="M274.7,214.2a4.7,4.7,0,0,0,3.8-5.5,64.3,64.3,0,0,1-1.3-12.2,11,11,0,0,1,7.4-10.5c4.5-1.9,17.2-4.7,26.7-6.6s22.4-3.7,27.3-3.7a11.1,11.1,0,0,1,10.7,7.1,55.1,55.1,0,0,1,3.2,11.9,4.8,4.8,0,0,0,5.6,3.7,4.9,4.9,0,0,0,3.8-5.5,78.4,78.4,0,0,0-3.6-13.3,20.5,20.5,0,0,0-19.6-13.3c-6.7,0-22,2.6-29.1,3.9s-22.3,4.6-28.5,7c-8.3,3.3-13.6,10.9-13.4,19.5a64.9,64.9,0,0,0,1.5,13.7A4.7,4.7,0,0,0,274.7,214.2Z"/>
    <ellipse cx="361.9" cy="193.6" rx="8.5" ry="13.7" transform="translate(-27.5 64) rotate(-9.7)" style="fill: #ff78b7"/>
    <ellipse cx="358.1" cy="194.3" rx="9.8" ry="15.7" transform="translate(-27.7 63.4) rotate(-9.7)"/>
    <path d="M275.9,208.4a72.1,72.1,0,0,1-1.5-12.9,15.7,15.7,0,0,1,10.2-14.9c5.1-2,18.1-4.9,27.1-6.6s22.3-3.8,27.7-3.8,12.7,4,14.9,10.2a67.8,67.8,0,0,1,3.4,12.5h0a63.2,63.2,0,0,1,1.4,12.9A15.5,15.5,0,0,1,349,220.7c-5.2,2-18.1,4.9-27.2,6.6s-22.2,3.7-27.7,3.7a15.5,15.5,0,0,1-14.9-10.1,62.8,62.8,0,0,1-3.3-12.5Z" style="fill: #698eff"/>
    <path d="M320.7,208.9l12.4-2.3c6.2-1.2,9.5-5.3,9.7-9.8a34.4,34.4,0,0,0-1.8-11.7c-1.1-3.6-4.1-4.7-7.4-4.1l-21.1,4a6,6,0,0,0-4.9,7l1.6,8.4C310.5,207.1,314.5,210,320.7,208.9Z" style="fill: #b7ccff"/>
    <path d="M332.9,195.7l2.7-.5a2.4,2.4,0,0,1,3,1.8,2.4,2.4,0,0,1-2.1,2.8l-2.7.5a2.6,2.6,0,0,1-3-1.8A2.4,2.4,0,0,1,332.9,195.7Z" style="fill: #698eff"/>
    <path d="M320.3,198l2.7-.5a2.5,2.5,0,0,1,3,1.8,2.4,2.4,0,0,1-2.1,2.8l-2.7.5a2.4,2.4,0,0,1-3-1.8A2.4,2.4,0,0,1,320.3,198Z" style="fill: #698eff"/>
    <ellipse cx="301.5" cy="195.1" rx="3.2" ry="3.9" transform="translate(-34.8 69) rotate(-12.4)"/>
    <ellipse cx="347.3" cy="186.3" rx="3" ry="3.9" transform="translate(-38 103.3) rotate(-16.1)"/>
    <path d="M271.8,198.2c2.3-.6,4.1-1,6.4-1.4a1.1,1.1,0,0,1,1.2.8l4.6,24.7a1,1,0,0,1-.9,1.2l-6.4,1a8,8,0,0,1-8.7-5.8,69.2,69.2,0,0,1-2.2-11.9A8,8,0,0,1,271.8,198.2Z" style="fill: #698eff"/>
    <path d="M273.8,202.2l4.6-1.1c.9-.1,1.7.3,1.8,1l2.5,13.3a1.4,1.4,0,0,1-1.3,1.5,38.4,38.4,0,0,1-4.7.7c-1.9.2-3.6-.6-4.1-2a48.8,48.8,0,0,1-1.8-10C270.7,204.1,272,202.7,273.8,202.2Z" style="fill: #b7ccff"/>
    <g>
      <path d="M279.9,225.1c5.4-1.2,8.3-9.2,6.4-17.9s-7.7-14.8-13.1-13.7l-4.9,1.1,6.8,31.5Z"/>
      <ellipse cx="271.7" cy="210.3" rx="10" ry="16.1" transform="translate(-38.1 61.7) rotate(-12.1)"/>
      <ellipse cx="269.6" cy="210.8" rx="8.9" ry="14.3" transform="translate(-38.2 61.3) rotate(-12.1)" style="fill: #ff78b7"/>
      <path d="M262.4,212.5c1.2,5.3,4.2,8.9,7.2,8.3h.3c1.4-.5,2.4-1.8,2.9-3.8a15.2,15.2,0,0,0-.1-6.7c-1.2-5.3-4.3-8.9-7.2-8.3h0a3.8,3.8,0,0,0-2.3,1.7C261.9,205.7,261.6,209,262.4,212.5Zm1.9-.4c-.9-4.2,0-7.6,1.5-8.1h.1c1.5-.3,3.9,2.5,4.9,6.8a12.3,12.3,0,0,1,.1,5.7c-.4,1.3-1,2.2-1.7,2.3h0C267.6,219.1,265.2,216.3,264.3,212.1Z" style="fill: #fff"/>
    </g>
    <path d="M288.2,179.4c-9.5,2.8-10.5,9.1-8.8,18.2l-7.7-3.8,2.7-8.5,12.1-8.1Z"/>
    <g>
      <path d="M298.7,168.6l-2.6-.3a32,32,0,0,1-3.9-1c-4.8-1.5-7.4-6.6-2.1-9.8,0,0,4.3-5.2,13.2.5,2.5,1.6,3.7.9,5.1.5l-5.8,8.7Z" style="fill: #00f67a"/>
      <path d="M304.9,165.7a1.5,1.5,0,0,0,.9-1.6,1.3,1.3,0,0,0-1.6-1c-.1,0-7.9,1.1-17.7-12.5a1.4,1.4,0,0,0-1.9-.3,1.4,1.4,0,0,0-.3,1.9c11,15.2,20.1,13.6,20.4,13.5Z" style="fill: #00912f"/>
      <path d="M296.1,168.3c-.4-.1,4.6.9,8.8-7.5l1.8-3.7c1.7-3.3,5.7-10.5,12.5-9.1,0,0,5.9,1.6,3.6,8.2a12.5,12.5,0,0,1-2.9,4.4C316.7,163.8,308.2,170.6,296.1,168.3Z" style="fill: #00d071"/>
      <path d="M301.1,168.7l3.2-.2a18.7,18.7,0,0,0,12.4-7.4,19.6,19.6,0,0,0,2.1-3.6,1.3,1.3,0,0,0-.7-1.8h0a1.3,1.3,0,0,0-1.7.6C314.3,160.8,309.9,165.7,301.1,168.7Z" style="fill: #00912f"/>
    </g>
    <path d="M322.7,216.2c-.9-2.2-12.9-2.9-15.1-1.4a2.5,2.5,0,0,0-.8,2.8l14.2,3.1C322.6,219.2,323.3,217.4,322.7,216.2Z" style="fill: #d11583"/>
    <path d="M316.1,214.2c-3.5-.4-7.3-.2-8.5.6a2.5,2.5,0,0,0-.8,2.8l10.1,1.1a6.1,6.1,0,0,0,0-1.9A7.2,7.2,0,0,0,316.1,214.2Z"/>
    <path d="M314.4,223.5a9.2,9.2,0,0,0,6.6-2.8,20.9,20.9,0,0,0-8-2.9,21.8,21.8,0,0,0-6.2-.2A7.8,7.8,0,0,0,314.4,223.5Z" style="fill: #ffa8d2"/>
  </g>
  <g id="nelly">
    <circle cx="413.8" cy="80.3" r="53.9" style="fill: #57ef84"/>
    <circle cx="413.8" cy="80.3" r="53.9" style="fill: #57ef84"/>
    <g>
      <path d="M395.8,112.8l-5.6,3.7-1.5,1.2a56,56,0,0,0-6.9,6,52.5,52.5,0,0,0,11.6,6.5c1.1-1,2.3-1.9,3.5-2.8l1.6-1.2,3.9-2.5a6.2,6.2,0,0,0,2.1-8.7A6.4,6.4,0,0,0,395.8,112.8Z" style="fill: #cfcfda"/>
      <path d="M390.2,116.5l-1.5,1.2,8.2,9.7,1.6-1.2Z" style="fill: #b4b4c8"/>
    </g>
    <g>
      <path d="M413.8,134.2A53.8,53.8,0,0,0,446.7,123l-4.7-9.8a14.7,14.7,0,0,0-15.6-8.2l-20.1,3.1c-6,.9-9.2,3-12,11.3l-2.8,10A53.8,53.8,0,0,0,413.8,134.2Z" style="fill: url(#linear-gradient-5)"/>
      <path d="M438.5,101.1a7.1,7.1,0,0,1-6.3,8l-4.7.6-1.8.2-10.3,1.2-1.8.2-10.4,1.3h-1.7a5.4,5.4,0,0,1-5.2-4.6l-.6-5.7,4.5-.5,1.7-.2,10.4-1.3,1.8-.2L424.4,99l1.8-.2,11.9-1.5Z" style="fill: #6990ff"/>
      <path d="M402.2,112.7h-.7l-1.3-10.8,1.7-.2,1.3,10.9Z" style="fill: #3d6bf2"/>
      <rect x="413" y="100.3" width="1.8" height="10.98" transform="translate(-9.7 50.2) rotate(-6.9)" style="fill: #3d6bf2"/>
      <rect x="425.1" y="98.8" width="1.8" height="10.98" transform="translate(-9.4 51.6) rotate(-6.9)" style="fill: #3d6bf2"/>
      <path d="M372.7,86c-2.2.2-3.6,3.4-3.3,7.2s2.3,6.7,4.4,6.5l7.3-.6L380,85.4Z" style="fill: #698fff"/>
      <g>
        <path d="M389.2,74l-1.3-.3c-3.6-.9-11.9-3.3-14.8-8.1-1.9-2.9-2.4-7.3,2.5-13.4l1.2-1.2c3.3-2.8,8.5-3.4,11,2.9a108,108,0,0,1,5.4,16.3C393.7,73.1,391.7,74.5,389.2,74Z" style="fill: #e8e8e8"/>
        <path d="M387.9,73.7c-3.6-.9-11.9-3.3-14.8-8.1-1.9-2.9-2.4-7.3,2.5-13.4l1.2-1.2Z" style="fill: #ff78b9"/>
      </g>
      <path d="M449.7,45.9l-1.3-1c-3.8-2.2-9-1.8-10.3,4.9-.9,4.3-1.5,8.8-1.9,12.4a4.7,4.7,0,0,0-.5-1c-4.1-8.2-11.5-15.7-23.5-14.5s-17.6,8.8-20.2,17c-1,3.1-1.7,5.3-8.4,10.7-3.3,2.7-9.7,7.6-8.7,17.6A18.1,18.1,0,0,0,394,108.3l42.6-3.6a18,18,0,0,0,16.1-19.4c-.7-8.4-6.3-13-10.9-16,3.5-1.6,11-5.5,13-10.7C456.1,55.3,455.8,50.9,449.7,45.9Z" style="fill: url(#linear-gradient-6)"/>
      <path d="M454.8,58.6c-2,5.2-9.6,9.1-13.1,10.7l6.7-24.4,1.3,1C455.8,50.9,456.1,55.3,454.8,58.6Z" style="fill: #ff78b9"/>
      <g>
        <path d="M412.6,46.7a1.6,1.6,0,0,1-1.8-1.3c-.2-.7-3-16,7.1-21.6s27.2,3.4,27.9,3.7a1.6,1.6,0,1,1-1.5,2.9c-.1-.1-16.5-8.3-24.9-3.7s-5.5,17.9-5.5,18a1.6,1.6,0,0,1-1.2,1.9C412.6,46.6,412.6,46.6,412.6,46.7Z"/>
        <rect x="402.4" y="43.5" width="20.6" height="7.36" rx="3.3" transform="translate(-2.5 34.7) rotate(-4.8)" style="fill: #6990ff"/>
        <circle cx="446.4" cy="29.2" r="10.6" style="fill: #6990ff"/>
      </g>
      <g>
        <path d="M446.9,79.8c-2.2.2-3.6,3.4-3.3,7.1s2.3,6.7,4.4,6.5l7.3-.6-1.1-13.6Z" style="fill: #698fff"/>
        <ellipse cx="454.7" cy="86" rx="3.9" ry="6.9" transform="translate(-5.6 38.3) rotate(-4.8)" style="fill: #8ca9ff"/>
      </g>
      <g>
        <ellipse cx="397.8" cy="72.9" rx="2.1" ry="4" transform="translate(70.8 310.8) rotate(-46.4)"/>
        <path d="M407.1,78.1c-.1-1.1-4.1-.8-4,.3a1.9,1.9,0,0,0,2.1,1.5C406,79.9,407.2,79.2,407.1,78.1Z"/>
        <path d="M405.6,85.6c1.8,3.7,5.1,5.7,7.5,4.6s3.2-4.8,1.8-8.6Z" style="fill: #ff78b9"/>
        <ellipse cx="419.1" cy="71.1" rx="4" ry="2.1" transform="translate(111 363.9) rotate(-53.2)"/>
        <path d="M422.7,81.7H422a1.1,1.1,0,0,1-.3-1.4l3.1-4.9a.9.9,0,0,1,1.3-.3,1,1,0,0,1,.3,1.3l-3,5A1.3,1.3,0,0,1,422.7,81.7Z" style="fill: #ffaed7"/>
        <path d="M426.7,81.3a.7.7,0,0,1-.6-.1.9.9,0,0,1-.3-1.3l3-5a1,1,0,0,1,1.7,1.1l-3.1,4.9A.8.8,0,0,1,426.7,81.3Z" style="fill: #ffaed7"/>
        <path d="M430.8,81a.7.7,0,0,1-.6-.2.9.9,0,0,1-.3-1.3l3-4.9a.9.9,0,0,1,1.3-.3,1,1,0,0,1,.4,1.3l-3.1,4.9C431.4,80.8,431.1,80.9,430.8,81Z" style="fill: #ffaed7"/>
        <path d="M396.2,84a1.2,1.2,0,0,1-.9-.4l-3.8-4.3a.9.9,0,0,1,0-1.3,1.1,1.1,0,0,1,1.4,0l3.9,4.4a.9.9,0,0,1-.1,1.3Z" style="fill: #ffaed7"/>
        <path d="M392.1,84.3a.7.7,0,0,1-.8-.3l-3.9-4.3a1,1,0,0,1,0-1.4,1.1,1.1,0,0,1,1.4.1l3.9,4.3a1.1,1.1,0,0,1-.1,1.4Z" style="fill: #ffaed7"/>
        <path d="M388,84.7a1.1,1.1,0,0,1-.8-.3l-3.9-4.3a1,1,0,0,1,.1-1.4.9.9,0,0,1,1.3.1l3.9,4.3a1,1,0,0,1-.1,1.4Z" style="fill: #ffaed7"/>
      </g>
    </g>
    <g>
      <path d="M449.6,112.2l-1.7-.8-6.4-2.2a6.3,6.3,0,1,0-3.7,12.1l4.4,1.5,1.8.7,1.2.6a55.2,55.2,0,0,0,10-9.3Z" style="fill: #cfcfda"/>
      <path d="M447.9,111.4l1.7.8L444,123.5l-1.8-.7Z" style="fill: #b4b4c8"/>
    </g>
  </g>
  <g id="sparkles">
    <path d="M34.1,189.2a15,15,0,0,1-6.8-10.3l-1.2-7.2a.7.7,0,0,0-.7-.6h0a.7.7,0,0,0-.7.6l-1,7.3a15.1,15.1,0,0,1-6.6,10.4l-.9.6a.6.6,0,0,0-.3.6h0a.6.6,0,0,0,.3.6l.9.6a15,15,0,0,1,6.8,10.3l1.2,7.2a.7.7,0,0,0,.7.6h0a.7.7,0,0,0,.7-.6l1-7.3a15.1,15.1,0,0,1,6.6-10.4l.9-.6a.6.6,0,0,0,.3-.6h0a.6.6,0,0,0-.3-.6Z" style="fill: #8088ff"/>
    <path d="M367.1,21.2a10.1,10.1,0,0,1-4.4-6.6L362,9.9a.7.7,0,0,0-.5-.4h0a.7.7,0,0,0-.5.4l-.6,4.7a9.8,9.8,0,0,1-4.3,6.7l-.6.4a.8.8,0,0,0-.2.4h0c0,.1.1.3.2.3l.6.4a9.4,9.4,0,0,1,4.4,6.7l.8,4.7a.3.3,0,0,0,.5.3h0a.4.4,0,0,0,.4-.4l.7-4.6a9.7,9.7,0,0,1,4.2-6.8l.6-.4c.2-.1.2-.2.2-.4h0c0-.2,0-.3-.2-.4Z" style="fill: #8088ff"/>
    <path d="M464.5,159.1a15.6,15.6,0,0,1-7.1-10.8l-1.2-7.5a.8.8,0,0,0-.8-.7h0a.7.7,0,0,0-.7.7l-1.1,7.6a15.6,15.6,0,0,1-6.9,10.9l-.9.6a1,1,0,0,0-.4.7h0a1,1,0,0,0,.4.7l1,.6a15.6,15.6,0,0,1,7.1,10.8l1.2,7.5a.8.8,0,0,0,.8.7h0c.3-.1.7-.3.7-.7l1.1-7.6a15.8,15.8,0,0,1,6.8-10.9l1-.6a1,1,0,0,0,.4-.7h0a1,1,0,0,0-.4-.7Z" style="fill: #ff78b7"/>
    <path d="M42.6,165.6a6.2,6.2,0,0,1-2.9-4.4l-.5-3.1c-.1-.2-.2-.3-.4-.3h0l-.3.3-.4,3.1a6.5,6.5,0,0,1-2.8,4.5l-.5.3c0,.1-.1.2-.1.3h0l.2.2.4.3a6.7,6.7,0,0,1,2.9,4.5l.5,3.1.3.3h0a.3.3,0,0,0,.3-.3l.5-3.2a6.4,6.4,0,0,1,2.8-4.5l.4-.2c.1-.1.2-.2.2-.3h0l-.2-.3Z" style="fill: #ffe55c"/>
    <path d="M176.9,197.6a6.5,6.5,0,0,1-3-4.5l-.5-3.1a.3.3,0,0,0-.3-.3h0a.3.3,0,0,0-.3.3l-.4,3.1a6.7,6.7,0,0,1-2.9,4.6l-.4.2a.4.4,0,0,0-.1.3h0a.4.4,0,0,0,.1.3l.4.2a6.5,6.5,0,0,1,3,4.5l.5,3.1a.3.3,0,0,0,.3.3h0a.3.3,0,0,0,.3-.3l.4-3.1a6.7,6.7,0,0,1,2.9-4.6l.4-.2a.4.4,0,0,0,.1-.3h0a.4.4,0,0,0-.1-.3Z" style="fill: #e292aa"/>
    <path d="M76.1,29.9a2.6,2.6,0,0,1-1.3-2l-.2-1.4h-.2a.1.1,0,0,0-.1.1l-.2,1.4A3,3,0,0,1,72.8,30h-.3c0,.1.1.1.1.2h.2a2.6,2.6,0,0,1,1.3,2l.3,1.4c0,.1,0,.1.1.1h0c.1,0,.1,0,.1-.1l.2-1.4a3.3,3.3,0,0,1,1.3-2.1h.2Z" style="fill: #57ef84"/>
    <path d="M391.4,223.1a4.5,4.5,0,0,1-2.2-3.2l-.4-2.4h-.2c-.1,0-.2,0-.2.2l-.3,2.3a5.2,5.2,0,0,1-2.1,3.3l-.3.2c-.1,0-.1.1-.1.2h0c0,.1,0,.2.1.2l.3.2a4.7,4.7,0,0,1,2.1,3.3l.4,2.3.2.2h0c.2,0,.3-.1.3-.2l.3-2.3a4.8,4.8,0,0,1,2.1-3.4l.3-.2c.1,0,.1-.1.1-.2h0v-.2Z" style="fill: #8ad7ff"/>
    <path d="M253,45.3a4.5,4.5,0,0,1-2.1-3.2l-.4-2.2a.2.2,0,0,0-.2-.2h0a.2.2,0,0,0-.2.2l-.3,2.3a4.4,4.4,0,0,1-2.1,3.2l-.3.2v.2h0c0,.1.1.1.2.2l.2.2a4.6,4.6,0,0,1,2.2,3.2l.3,2.2a.2.2,0,0,0,.2.2h0c.2,0,.3-.1.3-.2l.3-2.3a4.6,4.6,0,0,1,2-3.2l.3-.2c.1,0,.1-.1.1-.2h0c0-.1,0-.1-.1-.2Z" style="fill: #57ef84"/>
  </g>
</svg>
